# xmcd CD database file generated by Grip 2.96
# 
# Track frame offsets:
#       150
#       56427
#       88449
#       106836
#       128946
#       173700
#       211391
#       230433
# 
# Disc length: 3298 seconds
# 
# Revision: 0
# Processed by: cddbd v1.4PL0 Copyright (c) Steve Scherf et al.
# Submitted via: Grip 2.96
# 
DISCID=6a0ce008
DTITLE=S.R.Vaughan - ve in Japan - Disk2
DYEAR=1900
DGENRE=
TTITLE0=Lenny
TTITLE1=Testify and Third Stone From The Sun
TTITLE2=Testify
TTITLE3=Pride And Joy
TTITLE4=Texas Flood
TTITLE5=Little Wing
TTITLE6=Third Stone From The Sun
TTITLE7=Tell Me
EXTD=
EXTT0=
EXTT1=
EXTT2=
EXTT3=
EXTT4=
EXTT5=
EXTT6=
EXTT7=
PLAYORDER=
